<svg width="91" height="92" viewBox="0 0 91 92" fill="none" xmlns="http://www.w3.org/2000/svg">
<path d="M8.27782 16.9386C3.76982 16.9386 0.117096 13.2859 0.117096 8.77791C0.117096 4.26991 3.76982 0.617188 8.27782 0.617188C12.7858 0.617188 16.4386 4.26991 16.4386 8.77791C16.4386 13.2859 12.7858 16.9386 8.27782 16.9386ZM8.27782 2.41682C4.76764 2.41682 1.89891 5.26773 1.89891 8.79573C1.89891 12.3237 4.74982 15.1746 8.27782 15.1746C11.788 15.1746 14.6567 12.3237 14.6567 8.79573C14.6567 5.26773 11.8058 2.41682 8.27782 2.41682Z" fill="#F4F4F4"/>
<path d="M82.7222 16.9386C78.2142 16.9386 74.5615 13.2859 74.5615 8.77791C74.5615 4.26991 78.2142 0.617188 82.7222 0.617188C87.2302 0.617188 90.8829 4.26991 90.8829 8.77791C90.8651 13.2859 87.2124 16.9386 82.7222 16.9386ZM82.7222 2.41682C79.212 2.41682 76.3433 5.26773 76.3433 8.79573C76.3433 12.3237 79.1942 15.1746 82.7222 15.1746C86.2324 15.1746 89.1011 12.3237 89.1011 8.79573C89.0833 5.26773 86.2324 2.41682 82.7222 2.41682Z" fill="#F4F4F4"/>
<path d="M45.5 16.9386C40.992 16.9386 37.3393 13.2859 37.3393 8.77791C37.3393 4.26991 40.992 0.617188 45.5 0.617188C50.008 0.617188 53.6607 4.26991 53.6607 8.77791C53.6429 13.2859 50.008 16.9386 45.5 16.9386ZM45.5 2.41682C41.9898 2.41682 39.1211 5.26773 39.1211 8.79573C39.1211 12.3059 41.972 15.1746 45.5 15.1746C49.0102 15.1746 51.8789 12.3237 51.8789 8.79573C51.8611 5.26773 49.0102 2.41682 45.5 2.41682Z" fill="#F4F4F4"/>
<path d="M75.4524 9.66854H52.7698C52.2709 9.66854 51.8789 9.27654 51.8789 8.77763C51.8789 8.27872 52.2709 7.88672 52.7698 7.88672H75.4702C75.9691 7.88672 76.3611 8.27872 76.3611 8.77763C76.3433 9.27654 75.9513 9.66854 75.4524 9.66854Z" fill="#F4F4F4"/>
<path d="M38.2302 9.66854H15.5476C15.0487 9.66854 14.6567 9.27654 14.6567 8.77763C14.6567 8.27872 15.0487 7.88672 15.5476 7.88672H38.248C38.7469 7.88672 39.1389 8.27872 39.1389 8.77763C39.1211 9.27654 38.7291 9.66854 38.2302 9.66854Z" fill="#F4F4F4"/>
<path d="M8.27782 91.3654C3.76982 91.3654 0.117096 87.7127 0.117096 83.2047C0.117096 78.6967 3.76982 75.0439 8.27782 75.0439C12.7858 75.0439 16.4386 78.6967 16.4386 83.2047C16.4386 87.7127 12.7858 91.3654 8.27782 91.3654ZM8.27782 76.8436C4.76764 76.8436 1.89891 79.6945 1.89891 83.2225C1.89891 86.7505 4.74982 89.6014 8.27782 89.6014C11.788 89.6014 14.6567 86.7505 14.6567 83.2225C14.6567 79.6945 11.8058 76.8436 8.27782 76.8436Z" fill="#F4F4F4"/>
<path d="M82.7222 91.3654C78.2142 91.3654 74.5615 87.7127 74.5615 83.2047C74.5615 78.6967 78.2142 75.0439 82.7222 75.0439C87.2302 75.0439 90.8829 78.6967 90.8829 83.2047C90.8651 87.7127 87.2124 91.3654 82.7222 91.3654ZM82.7222 76.8436C79.212 76.8436 76.3433 79.6945 76.3433 83.2225C76.3433 86.7505 79.1942 89.6014 82.7222 89.6014C86.2324 89.6014 89.1011 86.7505 89.1011 83.2225C89.0833 79.6945 86.2324 76.8436 82.7222 76.8436Z" fill="#F4F4F4"/>
<path d="M45.5 91.3654C40.992 91.3654 37.3393 87.7127 37.3393 83.2047C37.3393 78.6967 40.992 75.0439 45.5 75.0439C50.008 75.0439 53.6607 78.6967 53.6607 83.2047C53.6429 87.7127 50.008 91.3654 45.5 91.3654ZM45.5 76.8436C41.9898 76.8436 39.1211 79.6945 39.1211 83.2225C39.1211 86.7327 41.972 89.6014 45.5 89.6014C49.0102 89.6014 51.8789 86.7505 51.8789 83.2225C51.8611 79.6945 49.0102 76.8436 45.5 76.8436Z" fill="#F4F4F4"/>
<path d="M75.4524 84.1129H52.7698C52.2709 84.1129 51.8789 83.7209 51.8789 83.222C51.8789 82.7231 52.2709 82.3311 52.7698 82.3311H75.4702C75.9691 82.3311 76.3611 82.7231 76.3611 83.222C76.3611 83.7209 75.9513 84.1129 75.4524 84.1129Z" fill="#F4F4F4"/>
<path d="M38.2302 84.1129H15.5476C15.0487 84.1129 14.6567 83.7209 14.6567 83.222C14.6567 82.7231 15.0487 82.3311 15.5476 82.3311H38.248C38.7469 82.3311 39.1389 82.7231 39.1389 83.222C39.1389 83.7209 38.7291 84.1129 38.2302 84.1129Z" fill="#F4F4F4"/>
<path d="M8.27782 54.1603C3.76982 54.1603 0.117096 50.5076 0.117096 45.9996C0.117096 41.4916 3.76982 37.8389 8.26 37.8389C12.7502 37.8389 16.4207 41.4916 16.4207 45.9818C16.4385 50.5076 12.7858 54.1425 8.27782 54.1603ZM8.27782 39.6207C4.76764 39.6207 1.89891 42.4716 1.89891 45.9996C1.89891 49.5098 4.74982 52.3785 8.26 52.3785C11.7702 52.3785 14.6389 49.5276 14.6389 46.0174C14.6567 42.4894 11.8058 39.6385 8.27782 39.6207Z" fill="#F4F4F4"/>
<path d="M82.7222 54.1603C78.2142 54.1603 74.5615 50.5076 74.5615 45.9996C74.5615 41.4916 78.2142 37.8389 82.7222 37.8389C87.2302 37.8389 90.8829 41.4916 90.8829 45.9996C90.8651 50.5076 87.2124 54.1425 82.7222 54.1603ZM82.7222 39.6207C79.212 39.6207 76.3433 42.4716 76.3433 45.9996C76.3433 49.5276 79.1942 52.3785 82.7222 52.3785C86.2502 52.3785 89.1011 49.5276 89.1011 45.9996C89.0833 42.4894 86.2324 39.6385 82.7222 39.6207Z" fill="#F4F4F4"/>
<path d="M45.5 54.1603C40.992 54.1603 37.3393 50.5076 37.3393 45.9996C37.3393 41.4916 40.992 37.8389 45.5 37.8389C50.008 37.8389 53.6607 41.4916 53.6607 45.9996C53.6429 50.5076 50.008 54.1425 45.5 54.1603ZM45.5 39.6207C41.9898 39.6207 39.1211 42.4716 39.1211 45.9996C39.1211 49.5098 41.972 52.3785 45.5 52.3785C49.028 52.3785 51.8789 49.5276 51.8789 45.9996C51.8611 42.4894 49.0102 39.6385 45.5 39.6207Z" fill="#F4F4F4"/>
<path d="M75.4524 46.8912H52.7698C52.2709 46.8912 51.8789 46.4992 51.8789 46.0003C51.8789 45.5014 52.2709 45.1094 52.7698 45.1094H75.4702C75.9691 45.1094 76.3611 45.5014 76.3611 46.0003C76.3611 46.4992 75.9513 46.8912 75.4524 46.8912Z" fill="#F4F4F4"/>
<path d="M38.2302 46.8912H15.5476C15.0487 46.8912 14.6567 46.4992 14.6567 46.0003C14.6567 45.5014 15.0487 45.1094 15.5476 45.1094H38.248C38.7469 45.1094 39.1389 45.5014 39.1389 46.0003C39.1389 46.4992 38.7291 46.8912 38.2302 46.8912Z" fill="#F4F4F4"/>
<path d="M45.5 39.6214C45.3396 39.6214 45.1793 39.5857 45.0546 39.4966L6.38911 16.6537C5.97929 16.3864 5.83674 15.8519 6.10401 15.4243C6.35347 15.0144 6.8702 14.8897 7.29783 15.1214L45.9633 37.9643C46.3909 38.2137 46.5335 38.7661 46.2662 39.1937C46.1058 39.461 45.8207 39.6214 45.5 39.6214Z" fill="#F4F4F4"/>
<path d="M45.5 39.6212C45.0011 39.6212 44.6091 39.2292 44.6091 38.7303C44.6091 38.4096 44.7695 38.1245 45.0367 37.9641L83.7022 15.1212C84.1476 14.8896 84.6822 15.0678 84.896 15.5132C85.1098 15.923 84.9673 16.4041 84.5931 16.6536L45.9276 39.4965C45.8207 39.5856 45.6604 39.6212 45.5 39.6212Z" fill="#F4F4F4"/>
<path d="M45.5 76.9856C45.3396 76.9856 45.1793 76.95 45.0546 76.8609L6.38911 54.018C5.97929 53.7507 5.83674 53.2162 6.10401 52.7885C6.35347 52.3787 6.8702 52.254 7.29783 52.4856L45.9633 75.3285C46.3909 75.578 46.5335 76.1303 46.2662 76.558C46.1058 76.8253 45.8029 76.9856 45.5 76.9856Z" fill="#F4F4F4"/>
<path d="M45.5 76.986C45.0011 76.986 44.6091 76.594 44.6091 76.0951C44.6091 75.7744 44.7695 75.4893 45.0367 75.3289L83.7022 52.486C84.1298 52.2366 84.6644 52.3791 84.9138 52.8068C85.1633 53.2344 85.0207 53.7689 84.5931 54.0184L45.9276 76.8613C45.8207 76.9504 45.6604 76.986 45.5 76.986Z" fill="#F4F4F4"/>
<path d="M6.83454 76.986C6.33563 76.986 5.94363 76.594 5.94363 76.0951C5.94363 75.7744 6.104 75.4893 6.37127 75.3289L45.0367 52.486C45.4644 52.2366 45.9989 52.3791 46.2662 52.8068C46.5156 53.2344 46.3731 53.7689 45.9455 54.0362L7.28 76.8791C7.15527 76.9504 6.99491 76.986 6.83454 76.986Z" fill="#F4F4F4"/>
<path d="M84.1655 76.986C84.0051 76.986 83.8447 76.9504 83.72 76.8613L45.0546 54.0184C44.6269 53.7689 44.4844 53.2166 44.7338 52.8068C44.9833 52.3791 45.5356 52.2366 45.9633 52.486L84.6287 75.3289C85.0564 75.5784 85.1989 76.1308 84.9316 76.5584C84.7713 76.8257 84.4684 76.986 84.1655 76.986Z" fill="#F4F4F4"/>
<path d="M6.83454 39.6209C6.33563 39.6209 5.94363 39.2289 5.94363 38.73C5.94363 38.4092 6.104 38.1241 6.37127 37.9638L45.0367 15.1209C45.4822 14.9071 46.0167 15.0852 46.2305 15.5129C46.4265 15.9049 46.3018 16.4038 45.9276 16.6532L7.26218 39.4962C7.15527 39.5852 6.99491 39.6209 6.83454 39.6209Z" fill="#F4F4F4"/>
<path d="M84.1655 39.621C84.0051 39.621 83.8447 39.5854 83.72 39.4963L45.0546 16.6534C44.6269 16.4039 44.4844 15.8516 44.7338 15.4239C44.9833 14.9963 45.5356 14.8538 45.9633 15.1032L84.6287 37.9461C85.0564 38.1956 85.1989 38.7479 84.9316 39.1756C84.7713 39.4607 84.4862 39.621 84.1655 39.621Z" fill="#F4F4F4"/>
</svg>
