<svg width="99" height="82" viewBox="0 0 99 82" fill="none" xmlns="http://www.w3.org/2000/svg">
<path fill-rule="evenodd" clip-rule="evenodd" d="M57.6269 25.4027C57.6269 24.8504 58.0746 24.4027 58.6269 24.4027C59.1791 24.4027 59.6268 24.8504 59.6268 25.4027V27.2359C59.6268 27.7881 59.1791 28.2358 58.6269 28.2358C58.0746 28.2358 57.6269 27.7881 57.6269 27.2359V25.4027ZM61.6277 54.404C62.4022 54.404 63.0307 55.2819 63.0307 56.3636C63.0307 57.4463 62.4022 58.3242 61.6277 58.3242C60.8522 58.3242 60.2248 57.4463 60.2248 56.3636C60.2248 55.2809 60.8522 54.404 61.6277 54.404ZM22.0716 24.2132C22.0716 24.7655 21.6239 25.2131 21.0716 25.2131C20.5194 25.2131 20.0717 24.7655 20.0717 24.2132V19.3758L10.0735 19.2517C9.52665 19.2451 9.08877 18.8007 9.08877 18.255H9.08441V8.92229C8.26965 8.73276 7.54094 8.31775 6.96908 7.7459C6.17175 6.94856 5.67832 5.84733 5.67832 4.63063C5.67832 3.41394 6.17175 2.31271 6.96908 1.51537C7.76642 0.718041 8.86874 0.224609 10.0843 0.224609C11.301 0.224609 12.4023 0.718041 13.1996 1.51537C13.9969 2.31271 14.4904 3.41394 14.4904 4.63063C14.4904 5.84733 13.9969 6.94856 13.1996 7.7459C12.6277 8.31775 11.899 8.73385 11.0843 8.92229V17.2714L20.0706 17.3836V12.5713C20.0706 12.019 20.5183 11.5713 21.0705 11.5713H32.7125C33.2647 11.5713 33.7124 12.019 33.7124 12.5713C33.7124 13.1235 33.2647 13.5712 32.7125 13.5712H22.0705L22.0716 24.2132ZM66.2865 13.5712C65.7342 13.5712 65.2865 13.1235 65.2865 12.5713C65.2865 12.019 65.7342 11.5713 66.2865 11.5713H77.9284C78.4807 11.5713 78.9283 12.019 78.9283 12.5713V17.3836L87.9147 17.2714V8.92229C87.0999 8.73276 86.3712 8.31775 85.7993 7.7459C85.002 6.94856 84.5086 5.84733 84.5086 4.63063C84.5086 3.41394 85.002 2.31271 85.7993 1.51537C86.5967 0.718041 87.699 0.224609 88.9146 0.224609C90.1313 0.224609 91.2325 0.718041 92.0299 1.51537C92.8272 2.31271 93.3206 3.41394 93.3206 4.63063C93.3206 5.84733 92.8272 6.94856 92.0299 7.7459C91.458 8.31775 90.7293 8.73385 89.9145 8.92229V18.255H89.9113C89.9113 18.7996 89.4734 19.2451 88.9266 19.2517L78.9283 19.3758V24.2132C78.9283 24.7655 78.4807 25.2131 77.9284 25.2131C77.3762 25.2131 76.9285 24.7655 76.9285 24.2132V13.5712H66.2865ZM76.9285 57.7861C76.9285 57.2339 77.3762 56.7862 77.9284 56.7862C78.4807 56.7862 78.9283 57.2339 78.9283 57.7861V62.6235L88.9266 62.7488C89.4723 62.7553 89.9113 63.1997 89.9113 63.7443H89.9156V73.077C90.7304 73.2666 91.4591 73.6816 92.0309 74.2534C92.8283 75.0508 93.3217 76.1531 93.3217 77.3687C93.3217 78.5854 92.8283 79.6866 92.0309 80.484C91.2336 81.2813 90.1313 81.7747 88.9157 81.7747C87.699 81.7747 86.5978 81.2813 85.8004 80.484C85.0031 79.6866 84.5097 78.5854 84.5097 77.3687C84.5097 76.152 85.0031 75.0508 85.8004 74.2534C86.3723 73.6816 87.101 73.2655 87.9158 73.077V64.7279L78.9294 64.6157V69.4281C78.9294 69.9803 78.4817 70.428 77.9295 70.428H66.2865C65.7342 70.428 65.2865 69.9803 65.2865 69.4281C65.2865 68.8758 65.7342 68.4281 66.2865 68.4281H76.9285V57.7861ZM32.7136 68.4281C33.2658 68.4281 33.7135 68.8758 33.7135 69.4281C33.7135 69.9803 33.2658 70.428 32.7136 70.428H21.0716C20.5194 70.428 20.0717 69.9803 20.0717 69.4281V64.6157L11.0854 64.7279V73.077C11.9001 73.2666 12.6288 73.6816 13.2007 74.2534C13.998 75.0508 14.4915 76.1531 14.4915 77.3687C14.4915 78.5854 13.998 79.6866 13.2007 80.484C12.4034 81.2813 11.301 81.7747 10.0854 81.7747C8.86874 81.7747 7.7675 81.2813 6.97017 80.484C6.17284 79.6866 5.67941 78.5854 5.67941 77.3687C5.67941 76.152 6.17284 75.0508 6.97017 74.2534C7.54203 73.6816 8.27074 73.2655 9.0855 73.077V63.7443H9.08877C9.08877 63.1997 9.52665 62.7542 10.0735 62.7488L20.0717 62.6235V57.7861C20.0717 57.2339 20.5194 56.7862 21.0716 56.7862C21.6239 56.7862 22.0716 57.2339 22.0716 57.7861V68.4292L32.7136 68.4281ZM0.500015 40.8624C0.500015 39.6457 0.993446 38.5445 1.79078 37.7472C2.58811 36.9498 3.68935 36.4564 4.90604 36.4564C6.12273 36.4564 7.22397 36.9498 8.0213 37.7472C8.59643 38.3223 9.01252 39.0554 9.20096 39.8756L21.0793 40.003C21.6293 40.0074 22.0716 40.4561 22.0672 41.0073C22.0628 41.5574 21.613 41.9996 21.0629 41.9952L9.1966 41.8678C9.00707 42.6804 8.59207 43.4069 8.0213 43.9777C7.22397 44.775 6.12273 45.2684 4.90604 45.2684C3.68935 45.2684 2.58811 44.775 1.79078 43.9777C0.993446 43.1814 0.500015 42.0791 0.500015 40.8624ZM3.20463 39.161C2.76893 39.5967 2.49988 40.198 2.49988 40.8624C2.49988 41.5269 2.76893 42.1292 3.20463 42.5638C3.64033 42.9995 4.2416 43.2686 4.90604 43.2686C5.57048 43.2686 6.17175 42.9995 6.60745 42.5638C7.04315 42.1281 7.3122 41.5269 7.3122 40.8624C7.3122 40.198 7.04315 39.5967 6.60745 39.161C6.17175 38.7264 5.57048 38.4563 4.90604 38.4563C4.2416 38.4563 3.64033 38.7264 3.20463 39.161ZM96.5002 40.8624C96.5002 40.198 96.2311 39.5967 95.7954 39.161C95.3597 38.7264 94.7584 38.4563 94.094 38.4563C93.4296 38.4563 92.8283 38.7253 92.3926 39.161C91.9569 39.5967 91.6878 40.198 91.6878 40.8624C91.6878 41.5269 91.9569 42.1292 92.3926 42.5638C92.8283 42.9995 93.4296 43.2686 94.094 43.2686C94.7584 43.2686 95.3597 42.9995 95.7954 42.5638C96.2311 42.1292 96.5002 41.528 96.5002 40.8624ZM97.2093 37.7472C98.0066 38.5445 98.5 39.6457 98.5 40.8624C98.5 42.0791 98.0066 43.1804 97.2093 43.9788C96.4119 44.7761 95.3107 45.2695 94.094 45.2695C92.8773 45.2695 91.7761 44.7761 90.9776 43.9788C90.4069 43.408 89.993 42.6815 89.8023 41.8689L77.936 41.9963C77.386 42.0007 76.9361 41.5585 76.9317 41.0084C76.9274 40.4583 77.3696 40.0084 77.9197 40.0041L89.798 39.8766C89.9853 39.0564 90.4025 38.3223 90.9776 37.7482C91.775 36.9509 92.8762 36.4575 94.094 36.4575C95.3107 36.4564 96.4119 36.9498 97.2093 37.7472ZM61.716 42.7599C58.7957 42.7599 56.1521 43.9439 54.2383 45.8566C52.3244 47.7705 51.1415 50.4141 51.1415 53.3333C51.1415 56.2536 52.3255 58.8972 54.2383 60.811C56.1521 62.7248 58.7957 63.9077 61.716 63.9077C64.6363 63.9077 67.2799 62.7237 69.1926 60.811C71.1064 58.8972 72.2893 56.2536 72.2893 53.3333C72.2893 50.4141 71.1064 47.7705 69.1926 45.8566C67.2799 43.9439 64.6363 42.7599 61.716 42.7599ZM67.7788 47.2716C66.2277 45.7205 64.084 44.7598 61.716 44.7598C59.3479 44.7598 57.2043 45.7194 55.6532 47.2716C54.1021 48.8238 53.1425 50.9663 53.1425 53.3344C53.1425 55.7024 54.1021 57.846 55.6532 59.3971C57.2043 60.9482 59.3479 61.9079 61.716 61.9079C64.084 61.9079 66.2277 60.9482 67.7788 59.3971C69.3298 57.846 70.2906 55.7013 70.2906 53.3344C70.2906 50.9663 69.3309 48.8227 67.7788 47.2716ZM40.859 56.9834C41.2391 57.3831 41.2228 58.0138 40.8241 58.3939C40.4255 58.7741 39.7937 58.7577 39.4135 58.3591C39.1772 58.1096 38.8874 57.907 38.5628 57.7676C38.2546 57.6347 37.9136 57.5617 37.552 57.5617C37.1915 57.5617 36.8494 57.6347 36.5423 57.7676C36.2166 57.907 35.9279 58.1096 35.6916 58.3591C35.3114 58.7588 34.6807 58.7741 34.281 58.3939C33.8812 58.0149 33.866 57.3831 34.2461 56.9834C34.6709 56.5368 35.1829 56.1762 35.7537 55.9311C36.3081 55.6926 36.9159 55.5608 37.5531 55.5608C38.1903 55.5608 38.7992 55.6926 39.3525 55.9311C39.9222 56.1751 40.4342 56.5357 40.859 56.9834ZM37.552 42.7599C34.6328 42.7599 31.9892 43.9428 30.0754 45.8566C28.1616 47.7705 26.9786 50.4141 26.9786 53.3333C26.9786 56.2536 28.1627 58.8972 30.0754 60.811C31.9892 62.7248 34.6328 63.9077 37.552 63.9077C40.4723 63.9077 43.1159 62.7237 45.0297 60.811C46.9435 58.8972 48.1265 56.2536 48.1265 53.3333C48.1265 50.4141 46.9425 47.7705 45.0286 45.8566C43.1159 43.9439 40.4723 42.7599 37.552 42.7599ZM43.6148 47.2716C42.0637 45.7205 39.919 44.7598 37.552 44.7598C35.184 44.7598 33.0403 45.7194 31.4892 47.2716C29.9381 48.8227 28.9774 50.9663 28.9774 53.3344C28.9774 55.7024 29.9371 57.846 31.4892 59.3971C33.0403 60.9482 35.184 61.9079 37.552 61.9079C39.92 61.9079 42.0637 60.9482 43.6148 59.3971C45.1659 57.846 46.1255 55.7013 46.1255 53.3344C46.1266 50.9663 45.167 48.8227 43.6148 47.2716ZM39.7087 49.7268C39.7087 49.1745 40.1564 48.7268 40.7087 48.7268C41.2609 48.7268 41.7086 49.1745 41.7086 49.7268V51.6003C41.7086 52.1525 41.2609 52.6002 40.7087 52.6002C40.1564 52.6002 39.7087 52.1525 39.7087 51.6003V49.7268ZM33.3954 49.7268C33.3954 49.1745 33.8431 48.7268 34.3954 48.7268C34.9476 48.7268 35.3953 49.1745 35.3953 49.7268V51.6003C35.3953 52.1525 34.9476 52.6002 34.3954 52.6002C33.8431 52.6002 33.3954 52.1525 33.3954 51.6003V49.7268ZM59.1878 34.1755C58.6356 34.1755 58.1879 33.7278 58.1879 33.1756C58.1879 32.6233 58.6356 32.1756 59.1878 32.1756H64.2452C64.7975 32.1756 65.2452 32.6233 65.2452 33.1756C65.2452 33.7278 64.7975 34.1755 64.2452 34.1755H59.1878ZM61.716 18.5643C58.8534 18.5643 56.261 19.7244 54.3842 21.6012C52.5074 23.478 51.3474 26.0693 51.3474 28.9329C51.3474 31.7955 52.5085 34.3879 54.3842 36.2647C56.261 38.1404 58.8523 39.3015 61.716 39.3015C64.5796 39.3015 67.171 38.1404 69.0477 36.2647C70.9234 34.3879 72.0846 31.7966 72.0846 28.9329C72.0846 26.0693 70.9234 23.478 69.0477 21.6012C67.171 19.7255 64.5785 18.5643 61.716 18.5643ZM67.6328 23.015C66.1187 21.501 64.0263 20.5642 61.7149 20.5642C59.4046 20.5642 57.3121 21.501 55.7981 23.015C54.284 24.5291 53.3473 26.6215 53.3473 28.9329C53.3473 31.2432 54.284 33.3357 55.7981 34.8498C57.3121 36.3638 59.4046 37.3006 61.7149 37.3006C64.0263 37.3006 66.1176 36.3638 67.6328 34.8498C69.1469 33.3357 70.0836 31.2432 70.0836 28.9329C70.0847 26.6215 69.1479 24.5302 67.6328 23.015ZM39.5399 32.7627C39.92 32.3641 40.5507 32.3477 40.9505 32.7279C41.3502 33.108 41.3655 33.7387 40.9853 34.1385C40.5442 34.6025 40.0126 34.9772 39.4201 35.231C38.845 35.4783 38.2132 35.6144 37.552 35.6144C36.8908 35.6144 36.2591 35.4772 35.6839 35.231C35.0914 34.9761 34.5598 34.6025 34.1187 34.1385C33.7385 33.7398 33.7549 33.108 34.1535 32.7279C34.5522 32.3488 35.184 32.3641 35.563 32.7627C35.8157 33.0296 36.1251 33.2453 36.4715 33.3945C36.8004 33.5361 37.1653 33.6145 37.5498 33.6145C37.9354 33.6145 38.2992 33.5361 38.6293 33.3945C38.9778 33.2453 39.2861 33.0296 39.5399 32.7627ZM37.552 18.0905C34.5577 18.0905 31.8476 19.3039 29.8859 21.2668C27.9241 23.2285 26.7096 25.9397 26.7096 28.9329C26.7096 31.9262 27.923 34.6373 29.8859 36.5991C31.8476 38.5608 34.5587 39.7753 37.552 39.7753C40.5453 39.7753 43.2564 38.5619 45.2182 36.5991C47.1799 34.6373 48.3933 31.9262 48.3933 28.9329C48.3933 25.9397 47.1799 23.2285 45.2182 21.2668C43.2564 19.3039 40.5453 18.0905 37.552 18.0905ZM43.8043 22.6806C42.2042 21.0805 39.993 20.0904 37.552 20.0904C35.111 20.0904 32.8998 21.0805 31.2997 22.6806C29.6996 24.2807 28.7106 26.4908 28.7106 28.9329C28.7106 31.375 29.7007 33.5851 31.2997 35.1852C32.8998 36.7854 35.111 37.7755 37.552 37.7755C39.993 37.7755 42.2042 36.7854 43.8043 35.1852C45.4044 33.5851 46.3946 31.375 46.3946 28.9329C46.3946 26.4908 45.4044 24.2807 43.8043 22.6806ZM63.8727 49.7268C63.8727 49.1745 64.3204 48.7268 64.8726 48.7268C65.4249 48.7268 65.8726 49.1745 65.8726 49.7268V51.6003C65.8726 52.1525 65.4249 52.6002 64.8726 52.6002C64.3204 52.6002 63.8727 52.1525 63.8727 51.6003V49.7268ZM57.5594 49.7268C57.5594 49.1745 58.0071 48.7268 58.5593 48.7268C59.1116 48.7268 59.5593 49.1745 59.5593 49.7268V51.6003C59.5593 52.1525 59.1116 52.6002 58.5593 52.6002C58.0071 52.6002 57.5594 52.1525 57.5594 51.6003V49.7268ZM91.3218 4.63063C91.3218 3.96619 91.0528 3.36383 90.6171 2.92922C90.1814 2.49461 89.5801 2.22448 88.9157 2.22448C88.2512 2.22448 87.65 2.49352 87.2143 2.92922C86.7786 3.36492 86.5095 3.96619 86.5095 4.63063C86.5095 5.29508 86.7786 5.89743 87.2143 6.33205C87.65 6.76775 88.2512 7.03679 88.9157 7.03679C89.5801 7.03679 90.1814 6.76775 90.6171 6.33205C91.0517 5.89634 91.3218 5.29508 91.3218 4.63063ZM90.6171 79.0712C91.0528 78.6355 91.3218 78.0342 91.3218 77.3698C91.3218 76.7053 91.0528 76.1041 90.6171 75.6684C90.1814 75.2327 89.5801 74.9636 88.9157 74.9636C88.2512 74.9636 87.65 75.2327 87.2143 75.6684C86.7786 76.1041 86.5095 76.7053 86.5095 77.3698C86.5095 78.0342 86.7786 78.6355 87.2143 79.0712C87.65 79.5058 88.2512 79.7759 88.9157 79.7759C89.5801 79.7759 90.1814 79.5058 90.6171 79.0712ZM8.38293 2.92813C7.94723 3.36383 7.67818 3.9651 7.67818 4.62954C7.67818 5.29399 7.94723 5.89635 8.38293 6.33096C8.81863 6.76557 9.4199 7.0357 10.0843 7.0357C10.7488 7.0357 11.3511 6.76666 11.7858 6.33096C12.2215 5.89526 12.4905 5.29399 12.4905 4.62954C12.4905 3.9651 12.2215 3.36274 11.7858 2.92813C11.3501 2.49352 10.7488 2.22339 10.0843 2.22339C9.4199 2.22448 8.81863 2.49352 8.38293 2.92813ZM7.67818 77.3687C7.67818 78.0331 7.94723 78.6344 8.38293 79.0701C8.81863 79.5047 9.4199 79.7749 10.0843 79.7749C10.7488 79.7749 11.3511 79.5058 11.7858 79.0701C12.2215 78.6344 12.4905 78.0331 12.4905 77.3687C12.4905 76.7043 12.2215 76.103 11.7858 75.6673C11.3501 75.2316 10.7488 74.9625 10.0843 74.9625C9.4199 74.9625 8.81863 75.2316 8.38293 75.6673C7.94832 76.103 7.67818 76.7043 7.67818 77.3687ZM39.797 25.224C39.797 24.6718 40.2446 24.2241 40.7969 24.2241C41.3491 24.2241 41.7968 24.6718 41.7968 25.224V27.1498C41.7968 27.7021 41.3491 28.1498 40.7969 28.1498C40.2446 28.1498 39.797 27.7021 39.797 27.1498V25.224ZM33.3072 25.224V27.1498C33.3072 27.7021 33.7549 28.1498 34.3071 28.1498C34.8594 28.1498 35.3071 27.7021 35.3071 27.1498V25.224C35.3071 24.6718 34.8594 24.2241 34.3071 24.2241C33.7549 24.2241 33.3072 24.6718 33.3072 25.224ZM63.8052 25.4027V27.2359C63.8052 27.7881 64.2528 28.2358 64.8051 28.2358C65.3573 28.2358 65.805 27.7881 65.805 27.2359V25.4027C65.805 24.8504 65.3573 24.4027 64.8051 24.4027C64.2528 24.4027 63.8052 24.8504 63.8052 25.4027Z" fill="#F4F4F4"/>
</svg>
