<svg width="96" height="96" viewBox="0 0 96 96" fill="none" xmlns="http://www.w3.org/2000/svg">
<path d="M85.4824 63.4463C92.0521 59.2094 96 53.8447 96 47.9924C96 42.14 92.0521 36.7754 85.4824 32.5385C87.2353 24.6134 86.0311 18.1362 81.946 14.0518C77.7999 9.90633 71.1845 8.90046 63.5021 10.5769C59.2493 3.97777 53.8533 0 48 0C42.1467 0 36.7507 3.97777 32.4979 10.5922C24.8155 8.9157 18.2001 9.92157 14.054 14.067C9.96888 18.1515 8.76469 24.6287 10.5176 32.5537C3.94792 36.7906 0 42.1553 0 48.0076C0 53.86 3.94792 59.2246 10.5176 63.4615C8.76469 71.3866 9.96888 77.8638 14.054 81.9482C16.9197 84.8135 20.9743 86.2766 25.8825 86.2766C27.9403 86.2766 30.181 85.987 32.5284 85.4688C36.766 92.0527 42.1467 96 47.9848 96C53.8228 96 59.2036 92.0527 63.4411 85.4688C65.7885 85.987 68.014 86.2766 70.087 86.2766C74.9952 86.2766 79.0499 84.8287 81.9155 81.9482C86.0159 77.8485 87.2201 71.3713 85.4824 63.4463ZM93.805 47.9924C93.805 52.976 90.5126 57.5787 84.9489 61.3126C84.766 60.642 84.5526 59.9562 84.3239 59.2704C83.1045 55.5669 81.3515 51.7873 79.1566 48.0076C81.3515 44.228 83.1045 40.4331 84.3239 36.7449C84.5526 36.0591 84.7507 35.3732 84.9489 34.7027C90.5126 38.4061 93.805 43.0087 93.805 47.9924ZM63.9594 63.9492C61.7644 66.1438 59.4779 68.2013 57.161 70.1064C54.2039 70.4112 51.14 70.5636 48 70.5636C44.86 70.5636 41.7961 70.4112 38.839 70.1064C36.5221 68.2165 34.2356 66.1591 32.0406 63.9492C29.8457 61.7546 27.7879 59.4685 25.8825 57.1519C25.5776 54.1953 25.4252 51.1319 25.4252 47.9924C25.4252 44.8528 25.5776 41.7895 25.8825 38.8328C27.7726 36.5163 29.8304 34.2302 32.0406 32.0356C34.2661 29.8104 36.5526 27.7682 38.8542 25.8784C41.8114 25.5888 44.8752 25.4212 48 25.4212C51.14 25.4212 54.2039 25.5736 57.161 25.8784C59.4627 27.7682 61.7491 29.8104 63.9594 32.0356C66.1543 34.2302 68.2121 36.5163 70.1175 38.8328C70.4224 41.7895 70.5748 44.8528 70.5748 47.9924C70.5748 51.1319 70.4224 54.1953 70.1175 57.1519C68.2274 59.4685 66.1696 61.7546 63.9594 63.9492ZM72.5716 41.9876C74.0502 43.9689 75.3763 45.9806 76.5957 47.9924C75.3763 50.0041 74.0502 52.0159 72.5716 53.9971C72.6936 52.0311 72.7698 50.0346 72.7698 47.9924C72.7698 45.9654 72.6936 43.9536 72.5716 41.9876ZM72.221 37.9641C71.8552 34.6264 71.3064 31.4259 70.59 28.3778C75.3153 29.7038 79.5071 31.4259 82.9825 33.4529C82.7691 34.2912 82.51 35.1599 82.2204 36.0286C81.1686 39.2443 79.6596 42.5363 77.8304 45.8435C76.1842 43.1916 74.3093 40.555 72.221 37.9641ZM69.6297 34.8855C68.3188 33.392 66.9622 31.9136 65.5141 30.4658C64.0813 29.0332 62.6027 27.6615 61.1242 26.3661C63.5935 26.7319 65.9714 27.1891 68.2426 27.753C68.7914 30.0391 69.2639 32.4166 69.6297 34.8855ZM58.0299 23.7752C55.4081 21.672 52.7558 19.7974 50.1035 18.1515C54.402 15.7435 58.5938 13.9908 62.5113 12.9697C64.5538 16.4598 66.2763 20.6661 67.6177 25.4059C64.5843 24.6896 61.3681 24.141 58.0299 23.7752ZM54.0057 23.4247C52.0394 23.3027 50.0273 23.2265 48 23.2265C45.9574 23.2265 43.9606 23.3027 41.979 23.4247C43.9911 21.9311 46.0032 20.5899 48 19.3707C50.0121 20.5899 52.0089 21.9463 54.0057 23.4247ZM37.9701 23.7752C34.6319 24.141 31.4309 24.6896 28.3823 25.4059C29.7085 20.6661 31.4462 16.4598 33.4887 12.9697C37.4062 13.9908 41.6132 15.7435 45.8965 18.1515C43.2442 19.7974 40.5919 21.672 37.9701 23.7752ZM34.8758 26.3661C33.3973 27.6768 31.9187 29.0332 30.4859 30.481C29.053 31.9136 27.6964 33.392 26.3703 34.9008C26.7361 32.4318 27.1934 30.0391 27.7574 27.7682C30.0286 27.2043 32.4065 26.7319 34.8758 26.3661ZM23.779 37.9641C21.6907 40.555 19.8311 43.1916 18.1543 45.8435C16.3099 42.5515 14.8161 39.2596 13.7644 36.0286C13.4748 35.1446 13.2309 34.2912 13.0022 33.4529C16.4776 31.4259 20.6847 29.7038 25.3947 28.3778C24.6936 31.4107 24.1448 34.6264 23.779 37.9641ZM23.4284 41.9876C23.3064 43.9536 23.2302 45.9502 23.2302 47.9924C23.2302 50.0194 23.3064 52.0311 23.4284 53.9971C21.9498 52.0159 20.6237 50.0041 19.4043 47.9924C20.6237 45.9806 21.9651 43.9689 23.4284 41.9876ZM23.779 58.0206C24.1448 61.3583 24.6936 64.5588 25.41 67.6069C20.6847 66.281 16.4929 64.5588 13.0175 62.5318C13.2309 61.6936 13.49 60.8249 13.7796 59.9562C14.8314 56.7404 16.3404 53.4485 18.1696 50.1413C19.8158 52.7931 21.6907 55.4298 23.779 58.0206ZM26.3703 61.0992C27.6812 62.5928 29.0378 64.0711 30.4859 65.519C31.9187 66.9516 33.3973 68.308 34.9063 69.6339C32.437 69.2681 30.0438 68.8109 27.7726 68.247C27.2086 65.9457 26.7361 63.5682 26.3703 61.0992ZM37.9701 72.2096C40.5614 74.2975 43.1985 76.1569 45.8507 77.8333C42.5583 79.6774 39.2658 81.171 36.0343 82.2226C35.1502 82.5121 34.2966 82.756 33.4582 82.9846C31.4309 79.5098 29.7085 75.3034 28.3823 70.5941C31.4157 71.2951 34.6319 71.8438 37.9701 72.2096ZM41.9943 72.5601C43.9606 72.682 45.9574 72.7582 48 72.7582C50.0273 72.7582 52.0394 72.682 54.0057 72.5601C52.0241 74.0384 50.0121 75.3643 48 76.5836C45.9879 75.3643 43.9759 74.0232 41.9943 72.5601ZM58.0299 72.2096C61.3681 71.8438 64.5691 71.2951 67.6177 70.5788C66.2915 75.3034 64.5691 79.4945 62.5418 82.9694C61.7034 82.756 60.8345 82.4969 59.9657 82.2073C56.7494 81.1557 53.457 79.6469 50.1493 77.8181C52.8015 76.1721 55.4386 74.2975 58.0299 72.2096ZM61.1089 69.6187C62.6027 68.308 64.0813 66.9516 65.5294 65.5037C66.9622 64.0711 68.3188 62.5928 69.645 61.084C69.2791 63.5529 68.8219 65.9457 68.2579 68.2165C65.9562 68.7804 63.5783 69.2529 61.1089 69.6187ZM72.221 58.0206C74.3093 55.4298 76.1689 52.7931 77.8457 50.1413C79.6901 53.4332 81.1839 56.7252 82.2356 59.9562C82.5252 60.8401 82.7691 61.6936 82.9978 62.5318C79.5224 64.5588 75.3153 66.281 70.6053 67.6069C71.3064 64.5741 71.8552 61.3583 72.221 58.0206ZM70.0413 11.9028C74.2788 11.9028 77.8761 13.0916 80.3912 15.6215C83.8056 19.0354 84.8574 24.522 83.5008 31.3497C79.6748 29.1856 75.1019 27.372 70.0108 26.0003C68.6389 20.8947 66.825 16.3226 64.6453 12.482C66.5354 12.101 68.3341 11.9028 70.0413 11.9028ZM48 2.19463C52.9997 2.19463 57.6183 5.51707 61.3528 11.1103C57.1 12.2839 52.5729 14.2346 48 16.8713C43.4271 14.2194 38.9 12.2686 34.6472 11.0951C38.3817 5.51707 43.0003 2.19463 48 2.19463ZM15.6088 15.6063C19.1451 12.0705 24.7545 11.1561 31.3547 12.4667C29.175 16.3074 27.3611 20.8795 25.9892 25.9851C20.8981 27.3415 16.3252 29.1551 12.4992 31.3345C11.1426 24.5067 12.2096 19.0202 15.6088 15.6063ZM2.19498 47.9924C2.19498 43.0087 5.48746 38.4061 11.0511 34.6722C11.234 35.3428 11.4474 36.0286 11.6761 36.7144C12.8955 40.4178 14.6485 44.1975 16.8434 47.9771C14.6485 51.7568 12.8955 55.5517 11.6761 59.2399C11.4474 59.9257 11.2493 60.6115 11.0511 61.2821C5.48746 57.5787 2.19498 52.976 2.19498 47.9924ZM15.6088 80.3785C12.1943 76.9646 11.1426 71.478 12.4992 64.6503C16.3252 66.8144 20.8981 68.628 25.9892 69.9997C27.3458 75.09 29.1597 79.6622 31.3395 83.4875C24.5106 84.8287 19.0232 83.7771 15.6088 80.3785ZM48 93.7901C43.0156 93.7901 38.4122 90.4982 34.6777 84.9202C35.3636 84.7373 36.0343 84.5391 36.7355 84.3105C40.4395 83.0913 44.2197 81.3386 48 79.144C51.7802 81.3386 55.5757 83.0913 59.2645 84.3105C59.9657 84.5391 60.6364 84.722 61.3223 84.9202C57.5878 90.4829 52.9844 93.7901 48 93.7901ZM80.3912 80.3785C76.9768 83.7924 71.4894 84.844 64.6605 83.4875C66.825 79.6622 68.6389 75.09 70.0108 69.9997C75.1019 68.6433 79.6748 66.8297 83.5008 64.6503C84.8574 71.478 83.7904 76.9646 80.3912 80.3785Z" fill="#F4F4F4"/>
<path d="M52.5425 8.47805C52.5425 6.24242 50.7204 4.43555 48.5 4.43555C46.2797 4.43555 44.4576 6.25773 44.4576 8.47805C44.4576 10.6984 46.2644 12.5205 48.5 12.5205C50.7357 12.5205 52.5425 10.7137 52.5425 8.47805ZM46.6625 8.47805C46.6625 7.46742 47.4894 6.64055 48.5 6.64055C49.5107 6.64055 50.3376 7.46742 50.3376 8.47805C50.3376 9.48867 49.5107 10.3155 48.5 10.3155C47.4894 10.3155 46.6625 9.48867 46.6625 8.47805Z" fill="#F4F4F4"/>
<path d="M48.5 83.4785C46.2644 83.4785 44.4576 85.3007 44.4576 87.521C44.4576 89.7413 46.2797 91.5635 48.5 91.5635C50.7204 91.5635 52.5425 89.7413 52.5425 87.521C52.5425 85.3007 50.7357 83.4785 48.5 83.4785ZM48.5 89.3585C47.4894 89.3585 46.6625 88.5316 46.6625 87.521C46.6625 86.5104 47.4894 85.6835 48.5 85.6835C49.5107 85.6835 50.3376 86.5104 50.3376 87.521C50.3376 88.5316 49.5107 89.3585 48.5 89.3585Z" fill="#F4F4F4"/>
<path d="M88.0216 52.042C90.2572 52.042 92.0641 50.2198 92.0641 47.9995C92.0641 45.7792 90.2419 43.957 88.0216 43.957C85.8013 43.957 83.9791 45.7792 83.9791 47.9995C83.9791 50.2198 85.7859 52.042 88.0216 52.042ZM88.0216 46.162C89.0322 46.162 89.8591 46.9889 89.8591 47.9995C89.8591 49.0102 89.0322 49.837 88.0216 49.837C87.0109 49.837 86.1841 49.0102 86.1841 47.9995C86.1841 46.9889 87.0109 46.162 88.0216 46.162Z" fill="#F4F4F4"/>
<path d="M8.97847 43.957C6.74285 43.957 4.93597 45.7792 4.93597 47.9995C4.93597 50.2198 6.75816 52.042 8.97847 52.042C11.1988 52.042 13.021 50.2352 13.021 47.9995C13.021 45.7639 11.2141 43.957 8.97847 43.957ZM8.97847 49.837C7.96785 49.837 7.14097 49.0102 7.14097 47.9995C7.14097 46.9889 7.96785 46.162 8.97847 46.162C9.9891 46.162 10.816 46.9889 10.816 47.9995C10.816 49.0102 9.9891 49.837 8.97847 49.837Z" fill="#F4F4F4"/>
<path d="M76.4454 24.1275C77.5326 24.1275 78.5585 23.6988 79.3241 22.9331C80.9013 21.3559 80.9013 18.7681 79.3241 17.1909C77.7623 15.6291 75.1438 15.6291 73.582 17.1909C72.8163 17.9566 72.3876 18.9825 72.3876 20.0697C72.3876 21.1569 72.8163 22.1675 73.582 22.9484C74.3476 23.6988 75.3582 24.1275 76.4454 24.1275ZM75.1285 18.7528C75.8176 18.0637 77.0579 18.0637 77.7469 18.7528C78.4666 19.4725 78.4666 20.6516 77.7469 21.3712C77.0426 22.0756 75.8329 22.0756 75.1285 21.3712C74.7763 21.0191 74.5926 20.5597 74.5926 20.0544C74.5926 19.5644 74.7763 19.105 75.1285 18.7528Z" fill="#F4F4F4"/>
<path d="M17.676 73.0809C16.9103 73.8465 16.4816 74.8725 16.4816 75.9597C16.4816 77.0468 16.9103 78.0575 17.676 78.8384C18.4416 79.604 19.4675 80.0328 20.5547 80.0328C21.6419 80.0328 22.6525 79.604 23.4335 78.8384C24.1991 78.0728 24.6278 77.0468 24.6278 75.9597C24.6278 74.8725 24.1991 73.8465 23.4335 73.0809C21.9482 71.6109 19.1613 71.5956 17.676 73.0809ZM21.8716 77.2612C21.1672 77.9656 19.9575 77.9656 19.2532 77.2612C18.901 76.909 18.7172 76.4497 18.7172 75.9443C18.7172 75.4543 18.9163 74.9797 19.2532 74.6275C19.9116 73.969 21.2132 73.969 21.8716 74.6275C22.2238 74.9797 22.4075 75.439 22.4075 75.9443C22.4075 76.4497 22.2085 76.909 21.8716 77.2612Z" fill="#F4F4F4"/>
<path d="M73.5666 73.0816C72.801 73.8472 72.3722 74.8732 72.3722 75.9604C72.3722 77.0475 72.801 78.0582 73.5666 78.8391C74.3322 79.6047 75.3582 80.0335 76.4453 80.0335C77.5325 80.0335 78.5585 79.6047 79.3241 78.8391C80.9013 77.2619 80.9013 74.6741 79.3241 73.0969C77.7622 71.5197 75.1285 71.5197 73.5666 73.0816ZM77.7622 77.2619C77.0578 77.9663 75.8329 77.9663 75.1438 77.2619C74.7916 76.9097 74.5925 76.4504 74.5925 75.945C74.5925 75.4397 74.7916 74.9804 75.1285 74.6282C75.8175 73.9391 77.0578 73.9391 77.7469 74.6282C78.4819 75.3632 78.4819 76.5422 77.7622 77.2619Z" fill="#F4F4F4"/>
<path d="M17.676 17.1902C16.9103 17.9558 16.4816 18.9817 16.4816 20.0689C16.4816 21.1561 16.9103 22.1667 17.676 22.9477C18.4416 23.7133 19.4675 24.142 20.5547 24.142C21.6419 24.142 22.6525 23.7133 23.4335 22.9477C24.1991 22.182 24.6278 21.1561 24.6278 20.0689C24.6278 18.9817 24.1991 17.9558 23.4335 17.1902C21.9482 15.7048 19.1613 15.7048 17.676 17.1902ZM21.8716 21.3705C21.1672 22.0748 19.9422 22.0748 19.2532 21.3705C18.901 21.0183 18.7019 20.5589 18.7019 20.0536C18.7019 19.5636 18.901 19.0889 19.2378 18.7367C19.8963 18.0783 21.1978 18.0783 21.8563 18.7367C22.2085 19.0889 22.3922 19.5483 22.3922 20.0536C22.4075 20.5589 22.2085 21.0183 21.8716 21.3705Z" fill="#F4F4F4"/>
<path d="M48.745 48.3513V35.2744C48.745 34.9834 48.6225 34.6925 48.4235 34.4934C48.2091 34.2791 47.9335 34.1719 47.6425 34.1719C39.5729 34.1872 33.0191 40.7562 33.0191 48.8106C33.0191 51.2453 33.6163 53.5269 34.6729 55.5481C34.6882 55.5634 34.6729 55.5941 34.6882 55.6094C34.6882 55.6247 34.7035 55.6247 34.7188 55.64C37.1688 60.295 42.0535 63.4647 47.6732 63.4647C51.5779 63.4647 55.2529 61.9487 58.0397 59.1772C58.2541 58.9628 58.3613 58.6872 58.3613 58.3963C58.3613 58.1053 58.2388 57.8144 58.0397 57.6153L48.745 48.3513ZM46.54 36.4228V48.1369L36.1735 53.5728C35.561 52.1028 35.2241 50.495 35.2241 48.8106C35.2241 42.3334 40.2007 36.9894 46.54 36.4228ZM47.6579 61.2444C43.2785 61.2444 39.4197 58.9628 37.1994 55.5175L47.4282 50.1581L55.6357 58.3503C53.3847 60.2184 50.5979 61.2444 47.6579 61.2444Z" fill="#F4F4F4"/>
<path d="M51.7463 32.4266C51.4247 32.3806 51.1185 32.4878 50.8735 32.6869C50.6285 32.9013 50.4907 33.1922 50.4907 33.5138V46.9734C50.4907 47.2644 50.6132 47.54 50.8122 47.7544L59.4944 56.4366C59.7088 56.6509 59.9844 56.7581 60.2753 56.7581H60.3213C60.6275 56.7428 60.9185 56.605 61.1175 56.36C63.3225 53.7416 64.5475 50.4034 64.5475 46.9581C64.5628 39.6234 59.0503 33.3606 51.7463 32.4266ZM60.1682 54.0019L52.6957 46.5294V34.8459C58.2694 36.1475 62.3425 41.1547 62.3425 46.9888C62.3425 49.5 61.5769 51.95 60.1682 54.0019Z" fill="#F4F4F4"/>
<path d="M85.7094 9.96316H87.7C88.1135 9.96316 88.4351 9.62629 88.4351 9.22816C88.4351 8.81473 88.0982 8.49316 87.7 8.49316H85.7094C85.296 8.49316 84.9744 8.83004 84.9744 9.22816C84.9744 9.6416 85.296 9.96316 85.7094 9.96316Z" fill="#F4F4F4"/>
<path d="M89.461 10.2695C89.0475 10.2695 88.726 10.6064 88.726 11.0045V12.9798C88.726 13.3933 89.0628 13.7148 89.461 13.7148C89.8744 13.7148 90.196 13.378 90.196 12.9798V11.0045C90.196 10.5911 89.8591 10.2695 89.461 10.2695Z" fill="#F4F4F4"/>
<path d="M89.461 8.20184C89.8744 8.20184 90.196 7.86496 90.196 7.46684V5.47621C90.196 5.06277 89.8591 4.74121 89.461 4.74121C89.0475 4.74121 88.726 5.07809 88.726 5.47621V7.46684C88.726 7.88027 89.0475 8.20184 89.461 8.20184Z" fill="#F4F4F4"/>
<path d="M91.2219 9.96316H93.1972C93.6106 9.96316 93.9322 9.62629 93.9322 9.22816C93.9322 8.83004 93.6106 8.49316 93.2125 8.49316H91.2219C90.8084 8.49316 90.4869 8.83004 90.4869 9.22816C90.4869 9.62629 90.8238 9.96316 91.2219 9.96316Z" fill="#F4F4F4"/>
<path d="M87.0416 87.4443H85.0969C84.6834 87.4443 84.3619 87.7812 84.3619 88.1793C84.3619 88.5928 84.6988 88.9143 85.0969 88.9143H87.0416C87.455 88.9143 87.7766 88.5775 87.7766 88.1793C87.7766 87.7812 87.455 87.4443 87.0416 87.4443Z" fill="#F4F4F4"/>
<path d="M88.7719 89.1748C88.3585 89.1748 88.0369 89.5117 88.0369 89.9098V91.8545C88.0369 92.2679 88.3738 92.5895 88.7719 92.5895C89.1854 92.5895 89.5069 92.2526 89.5069 91.8545V89.9098C89.5069 89.5117 89.1701 89.1748 88.7719 89.1748Z" fill="#F4F4F4"/>
<path d="M88.0369 84.5192V86.4639C88.0369 86.8773 88.3738 87.1989 88.7719 87.1989C89.1854 87.1989 89.5069 86.862 89.5069 86.4639V84.5192C89.5069 84.1057 89.1701 83.7842 88.7719 83.7842C88.3585 83.7842 88.0369 84.1057 88.0369 84.5192Z" fill="#F4F4F4"/>
<path d="M92.4316 87.4443H90.5022C90.0888 87.4443 89.7672 87.7812 89.7672 88.1793C89.7672 88.5928 90.1041 88.9143 90.5022 88.9143H92.4316C92.8451 88.9143 93.1666 88.5775 93.1666 88.1793C93.1666 87.7812 92.8451 87.4443 92.4316 87.4443Z" fill="#F4F4F4"/>
<path d="M6.86535 85.7598C5.16566 85.7598 3.78754 87.1226 3.78754 88.7916C3.78754 90.4607 5.16566 91.8235 6.86535 91.8235C8.54972 91.8235 9.92785 90.4607 9.92785 88.7916C9.94316 87.1226 8.56504 85.7598 6.86535 85.7598ZM6.86535 90.3688C5.96191 90.3688 5.25754 89.6798 5.25754 88.807C5.25754 87.9341 5.96191 87.2451 6.86535 87.2451C7.73816 87.2451 8.45785 87.9495 8.45785 88.807C8.47316 89.6645 7.75347 90.3688 6.86535 90.3688Z" fill="#F4F4F4"/>
<path d="M4.15504 8.55398H6.09973C6.51317 8.55398 6.83473 8.21711 6.83473 7.81898C6.83473 7.40555 6.49786 7.08398 6.09973 7.08398H4.15504C3.74161 7.08398 3.42004 7.42086 3.42004 7.81898C3.42004 8.21711 3.75692 8.55398 4.15504 8.55398Z" fill="#F4F4F4"/>
<path d="M7.83006 12.2138C8.24349 12.2138 8.56506 11.877 8.56506 11.4788V9.54945C8.56506 9.13602 8.22818 8.81445 7.83006 8.81445C7.43193 8.81445 7.07974 9.13602 7.07974 9.54945V11.4941C7.07974 11.8923 7.41662 12.2138 7.83006 12.2138Z" fill="#F4F4F4"/>
<path d="M7.83006 6.82387C8.24349 6.82387 8.56506 6.48699 8.56506 6.08887V4.14418C8.56506 3.73074 8.22818 3.40918 7.83006 3.40918C7.43193 3.40918 7.07974 3.74605 7.07974 4.14418V6.08887C7.07974 6.5023 7.41662 6.82387 7.83006 6.82387Z" fill="#F4F4F4"/>
<path d="M9.54503 8.55398H11.4744C11.8878 8.55398 12.2094 8.21711 12.2094 7.81898C12.2094 7.40555 11.8725 7.08398 11.4744 7.08398H9.54503C9.13159 7.08398 8.81003 7.42086 8.81003 7.81898C8.81003 8.21711 9.1469 8.55398 9.54503 8.55398Z" fill="#F4F4F4"/>
</svg>
